<svg xmlns="http://www.w3.org/2000/svg" version="1.1" width="235px" height="268px"
    style="shape-rendering:geometricPrecision; text-rendering:geometricPrecision; image-rendering:optimizeQuality; fill-rule:evenodd; clip-rule:evenodd"
    xmlns:xlink="http://www.w3.org/1999/xlink">
    <g>
        <path style="opacity:1" fill="transparent"
            d="M -0.5,-0.5 C 77.8333,-0.5 156.167,-0.5 234.5,-0.5C 234.5,88.8333 234.5,178.167 234.5,267.5C 156.167,267.5 77.8333,267.5 -0.5,267.5C -0.5,178.167 -0.5,88.8333 -0.5,-0.5 Z" />
    </g>
    <g>
        <path style="opacity:1" fill="#cbd46f"
            d="M 102.5,14.5 C 105.518,14.3354 108.518,14.502 111.5,15C 114.943,15.404 116.276,17.0706 115.5,20C 111.167,20.6667 106.833,20.6667 102.5,20C 101.248,18.1722 101.248,16.3388 102.5,14.5 Z" />
    </g>
    <g>
        <path style="opacity:1" fill="#cbd46f"
            d="M 126.5,22.5 C 132.259,24.7346 137.092,28.4013 141,33.5C 149.957,45.0841 155.957,58.0841 159,72.5C 159.632,83.9657 158.966,95.2991 157,106.5C 161.027,101.783 164.027,96.4492 166,90.5C 168.222,87.6967 170.055,87.8634 171.5,91C 165.181,107.977 154.181,120.977 138.5,130C 154.183,128.077 168.016,121.911 180,111.5C 182.671,108.163 184.837,104.496 186.5,100.5C 188.833,98.9979 190.499,99.4979 191.5,102C 187.68,111.488 181.346,118.821 172.5,124C 150.42,136.663 127.087,139.996 102.5,134C 122.51,149.445 144.51,153.445 168.5,146C 172.41,144.093 175.744,141.427 178.5,138C 182.088,137.389 183.254,138.889 182,142.5C 169.56,153.45 155.06,157.617 138.5,155C 114.728,151.196 96.228,139.363 83,119.5C 85.2959,137.594 93.4625,152.427 107.5,164C 114.578,168.248 122.245,170.248 130.5,170C 131.833,171.333 131.833,172.667 130.5,174C 119.644,175.603 109.977,172.936 101.5,166C 83.336,147.695 74.6694,125.529 75.5,99.5C 75.5297,93.0547 76.0297,86.7214 77,80.5C 71.3498,88.4905 67.0165,97.1572 64,106.5C 61.1492,109.328 59.6492,108.662 59.5,104.5C 65.3679,83.4635 78.0346,67.9635 97.5,58C 93.5,58.3333 89.5,58.6667 85.5,59C 84.1398,57.0624 84.4732,55.3957 86.5,54C 92.008,52.1378 97.6747,51.3045 103.5,51.5C 112.539,52.6251 121.539,53.7918 130.5,55C 111.392,42.5436 90.7255,38.8769 68.5,44C 62.8784,45.6369 57.7118,48.1369 53,51.5C 51.5,51.3333 50.6667,50.5 50.5,49C 56.798,42.6816 64.4646,38.6816 73.5,37C 96.6109,34.3607 117.611,39.6941 136.5,53C 143.099,59.7008 148.599,67.2008 153,75.5C 150.548,55.5994 141.548,39.266 126,26.5C 125.421,25.0715 125.588,23.7382 126.5,22.5 Z" />
    </g>
    <g>
        <path style="opacity:1" fill="#cbd46f"
            d="M 105.5,26.5 C 110.018,26.9704 114.351,28.1371 118.5,30C 121.076,30.7822 123.076,32.2822 124.5,34.5C 123.829,35.9458 122.662,36.6125 121,36.5C 115.686,34.5056 110.352,32.5056 105,30.5C 104.421,29.0715 104.588,27.7382 105.5,26.5 Z" />
    </g>
    <g>
        <path style="opacity:1" fill="#cbd46f"
            d="M 160.5,28.5 C 163.614,29.0913 166.114,30.758 168,33.5C 175.047,43.404 178.047,54.404 177,66.5C 175.216,69.0026 173.549,69.0026 172,66.5C 173.061,53.307 169.061,41.9736 160,32.5C 159.421,31.0715 159.588,29.7382 160.5,28.5 Z" />
    </g>
    <g>
        <path style="opacity:1" fill="#cbd46f"
            d="M 84.5,43.5 C 87.9103,43.3838 89.2436,45.0504 88.5,48.5C 86.8333,48.5 85.1667,48.5 83.5,48.5C 83.366,46.7085 83.6993,45.0418 84.5,43.5 Z" />
    </g>
    <g>
        <path style="opacity:1" fill="#cbd46f"
            d="M 70.5,47.5 C 74.1378,46.7366 75.6378,48.0699 75,51.5C 70.9988,54.0925 66.8321,55.9259 62.5,57C 61.2528,55.5064 61.2528,54.0064 62.5,52.5C 65.2308,50.8084 67.8975,49.1417 70.5,47.5 Z" />
    </g>
    <g>
        <path style="opacity:1" fill="#cbd46f"
            d="M 110.5,58.5 C 131.759,57.701 145.592,67.3677 152,87.5C 152.992,117.508 138.492,131.675 108.5,130C 87.3472,123.214 78.1805,108.714 81,86.5C 85.8956,71.7664 95.729,62.4331 110.5,58.5 Z" />
    </g>
    <g>
        <path style="opacity:1" fill="#cbd46f"
            d="M 71.5,59.5 C 74.0014,59.8256 75.1681,61.1589 75,63.5C 59.914,70.2521 49.2474,81.2521 43,96.5C 41.9695,100.773 41.3028,105.106 41,109.5C 39.4126,110.727 38.0793,110.394 37,108.5C 36.266,99.0314 38.5993,90.3647 44,82.5C 51.2617,72.3922 60.4283,64.7255 71.5,59.5 Z" />
    </g>
    <g>
        <path style="opacity:1" fill="#cbd46f"
            d="M 163.5,61.5 C 167.35,61.7007 168.35,63.5341 166.5,67C 162.537,67.1177 161.537,65.2843 163.5,61.5 Z" />
    </g>
    <g>
        <path style="opacity:1" fill="#ffffff"
            d="M 108.5,65.5 C 121.604,63.4778 132.437,67.4778 141,77.5C 148.144,91.7071 146.644,104.874 136.5,117C 122.264,127.383 108.431,126.883 95,115.5C 80.7762,93.7259 85.2762,77.0592 108.5,65.5 Z" />
    </g>
    <g>
        <path style="opacity:1" fill="#000000"
            d="M 110.5,70.5 C 131.718,69.5498 141.551,79.5498 140,100.5C 135.829,114.007 126.662,120.174 112.5,119C 96.4935,114.501 89.9935,104.001 93,87.5C 96.1095,78.8886 101.943,73.2219 110.5,70.5 Z" />
    </g>
    <g>
        <path style="opacity:1" fill="#cbd46f"
            d="M 59.5,79.5 C 63.1612,79.3501 64.1612,80.8501 62.5,84C 61.2068,84.49 59.8734,84.6567 58.5,84.5C 58.366,82.7085 58.6993,81.0418 59.5,79.5 Z" />
    </g>
    <g>
        <path style="opacity:1" fill="#cbd46f"
            d="M 192.5,79.5 C 195.95,79.5726 197.283,81.4059 196.5,85C 196.891,88.1336 195.891,90.6336 193.5,92.5C 192.833,92.1667 192.167,91.8333 191.5,91.5C 189.994,87.2397 190.327,83.2397 192.5,79.5 Z" />
    </g>
    <g>
        <path style="opacity:1" fill="#cbd46f"
            d="M 180.5,83.5 C 183.243,83.0772 184.576,84.2439 184.5,87C 183.338,90.4867 182.171,93.9867 181,97.5C 180.359,99.8132 179.026,101.48 177,102.5C 175.268,102.266 174.434,101.266 174.5,99.5C 176.31,94.0661 178.31,88.7328 180.5,83.5 Z" />
    </g>
    <g>
        <path style="opacity:1" fill="#cbd46f"
            d="M 171.5,104.5 C 173.484,104.484 174.484,105.484 174.5,107.5C 174.566,109.266 173.732,110.266 172,110.5C 168.897,108.888 168.73,106.888 171.5,104.5 Z" />
    </g>
    <g>
        <path style="opacity:1" fill="#cbd46f"
            d="M 57.5,116.5 C 58.8221,116.33 59.9887,116.663 61,117.5C 58.7908,132.532 62.7908,145.532 73,156.5C 73.49,157.793 73.6567,159.127 73.5,160.5C 71.8008,160.66 70.1341,160.494 68.5,160C 57.5116,147.212 53.8449,132.712 57.5,116.5 Z" />
    </g>
    <g>
        <path style="opacity:1" fill="#cbd46f"
            d="M 68.5,131.5 C 70.3904,131.297 71.8904,131.963 73,133.5C 74.4973,138.499 76.6639,143.165 79.5,147.5C 78.0336,149.657 76.2003,149.99 74,148.5C 71.4217,143.844 69.2551,139.011 67.5,134C 67.7432,133.098 68.0766,132.265 68.5,131.5 Z" />
    </g>
    <g>
        <path style="opacity:1" fill="#cbd46f"
            d="M 166.5,132.5 C 168.167,132.5 169.833,132.5 171.5,132.5C 172.026,135.808 170.693,137.974 167.5,139C 163.108,141.409 158.442,142.909 153.5,143.5C 153.215,141.712 153.548,140.045 154.5,138.5C 159.078,137.433 163.078,135.433 166.5,132.5 Z" />
    </g>
    <g>
        <path style="opacity:1" fill="#cbd46f"
            d="M 145.5,140.5 C 149.161,140.35 150.161,141.85 148.5,145C 147.207,145.49 145.873,145.657 144.5,145.5C 144.366,143.708 144.699,142.042 145.5,140.5 Z" />
    </g>
    <g>
        <path style="opacity:1" fill="#cbd46f"
            d="M 116.5,155.5 C 119.843,156.224 123.176,157.057 126.5,158C 129.322,160.531 128.822,162.031 125,162.5C 122.5,162 120,161.5 117.5,161C 115.365,159.444 115.032,157.611 116.5,155.5 Z" />
    </g>
</svg>